<svg width="20" height="20" viewBox="0 0 20 20" fill="none" xmlns="http://www.w3.org/2000/svg">
<path fill-rule="evenodd" clip-rule="evenodd" d="M0 10C0 4.615 4.365 0.25 9.75 0.25C15.135 0.25 19.5 4.615 19.5 10C19.5 15.385 15.135 19.75 9.75 19.75C4.365 19.75 0 15.385 0 10ZM13.36 8.186C13.42 8.10605 13.4634 8.01492 13.4877 7.91795C13.512 7.82098 13.5166 7.72014 13.5014 7.62135C13.4861 7.52257 13.4512 7.42782 13.3989 7.3427C13.3465 7.25757 13.2776 7.18378 13.1963 7.12565C13.1149 7.06753 13.0228 7.02624 12.9253 7.00423C12.8278 6.98221 12.7269 6.97991 12.6285 6.99746C12.5301 7.01501 12.4362 7.05205 12.3523 7.10641C12.2684 7.16077 12.1962 7.23135 12.14 7.314L8.904 11.844L7.28 10.22C7.13782 10.0875 6.94978 10.0154 6.75548 10.0188C6.56118 10.0223 6.37579 10.101 6.23838 10.2384C6.10097 10.3758 6.02225 10.5612 6.01882 10.7555C6.0154 10.9498 6.08752 11.1378 6.22 11.28L8.47 13.53C8.54699 13.6069 8.6398 13.6662 8.74199 13.7036C8.84418 13.7411 8.95329 13.7559 9.06176 13.7469C9.17023 13.738 9.27546 13.7055 9.37013 13.6519C9.4648 13.5982 9.54665 13.5245 9.61 13.436L13.36 8.186Z" fill="#00B63C"/>
</svg>
