<svg width="40" height="40" viewBox="0 0 40 40" fill="none" xmlns="http://www.w3.org/2000/svg">
<path fill-rule="evenodd" clip-rule="evenodd" d="M31.1417 31.8283C32.7567 30.3108 34.0433 28.4782 34.9219 26.4437C35.8006 24.4092 36.2526 22.2161 36.25 20C36.25 11.025 28.975 3.75 20 3.75C11.025 3.75 3.75001 11.025 3.75001 20C3.74745 22.2161 4.19946 24.4092 5.07809 26.4437C5.95673 28.4782 7.24333 30.3108 8.85834 31.8283C11.8699 34.6732 15.8573 36.2556 20 36.25C24.1428 36.2556 28.1301 34.6732 31.1417 31.8283ZM10.2417 29.6867C11.4118 28.2227 12.8967 27.0412 14.5861 26.2299C16.2754 25.4185 18.1259 24.9981 20 25C21.8741 24.9981 23.7246 25.4185 25.414 26.2299C27.1033 27.0412 28.5882 28.2227 29.7583 29.6867C28.4817 30.9762 26.9618 31.9993 25.2866 32.6969C23.6115 33.3944 21.8146 33.7523 20 33.75C18.1855 33.7523 16.3885 33.3944 14.7134 32.6969C13.0383 31.9993 11.5183 30.9762 10.2417 29.6867ZM26.25 15C26.25 16.6576 25.5915 18.2473 24.4194 19.4194C23.2473 20.5915 21.6576 21.25 20 21.25C18.3424 21.25 16.7527 20.5915 15.5806 19.4194C14.4085 18.2473 13.75 16.6576 13.75 15C13.75 13.3424 14.4085 11.7527 15.5806 10.5806C16.7527 9.40848 18.3424 8.75 20 8.75C21.6576 8.75 23.2473 9.40848 24.4194 10.5806C25.5915 11.7527 26.25 13.3424 26.25 15Z" fill="#E86828"/>
</svg>
