<svg width="40" height="40" viewBox="0 0 40 40" fill="none" xmlns="http://www.w3.org/2000/svg">
<path fill-rule="evenodd" clip-rule="evenodd" d="M17.5 6.33001V14.6967C17.4998 16.0227 16.9728 17.2942 16.035 18.2317L12.0734 22.1933C15.0018 21.9869 17.932 22.57 20.5584 23.8817C23.5053 25.3557 26.8811 25.7315 30.08 24.9417L30.555 24.8233L23.965 18.2317C23.0273 17.2942 22.5003 16.0227 22.5 14.6967V6.33001C20.8351 6.22404 19.165 6.22404 17.5 6.33001ZM25 6.56001C25.3201 6.56292 25.629 6.44296 25.8633 6.22485C26.0975 6.00674 26.2391 5.7071 26.259 5.38767C26.2788 5.06824 26.1754 4.75336 25.9701 4.50791C25.7647 4.26245 25.473 4.10513 25.155 4.06834C23.445 3.85504 21.7233 3.74872 20 3.75001C18.2768 3.74962 16.5552 3.85594 14.845 4.06834C14.5271 4.10513 14.2354 4.26245 14.03 4.50791C13.8246 4.75336 13.7212 5.06824 13.7411 5.38767C13.761 5.7071 13.9026 6.00674 14.1368 6.22485C14.3711 6.44296 14.68 6.56292 15 6.56001V14.6967C14.9995 15.3595 14.7357 15.995 14.2667 16.4633L3.77838 26.9533C1.07838 29.655 2.27338 34.4117 6.23004 35.0867C10.7067 35.8533 15.3084 36.25 20 36.25C24.6934 36.25 29.2934 35.8517 33.77 35.0883C37.725 34.4117 38.9234 29.655 36.22 26.9533L25.7334 16.465C25.501 16.2329 25.3166 15.9572 25.1907 15.6538C25.0649 15.3504 25.0001 15.0252 25 14.6967V6.56001Z" fill="#E86828"/>
</svg>
