<svg width="135" height="32" viewBox="0 0 135 32" fill="none" xmlns="http://www.w3.org/2000/svg">
<path d="M126.563 32L116.567 16.5943L122.574 12.9829L135 32H126.563ZM105.7 32V0H113.082V32H105.7ZM110.927 19.1086V12.9371H122.115V19.1086H110.927ZM123.262 16.8229L116.43 16L126.838 0H134.679L123.262 16.8229Z" fill="#E86828"/>
<path d="M72.8562 32V0H98.7632V5.89714H80.2385V12.48H89.134C93.0163 12.48 95.9661 13.2876 97.9837 14.9029C100.032 16.5181 101.056 18.8648 101.056 21.9429C101.056 25.1124 99.9248 27.581 97.6627 29.3486C95.4006 31.1162 92.2062 32 88.0794 32H72.8562ZM80.2385 26.5143H87.6667C89.562 26.5143 91.014 26.1486 92.0228 25.4171C93.0315 24.6552 93.5359 23.5581 93.5359 22.1257C93.5359 19.3219 91.5795 17.92 87.6667 17.92H80.2385V26.5143Z" fill="#E86828"/>
<path d="M58.3032 0H65.7314V32H58.3032V0ZM43.7219 32H36.2937V0H43.7219V32ZM58.8534 18.88H43.1717V12.6171H58.8534V18.88Z" fill="#E86828"/>
<path d="M0 32V0H29.2542V32H21.8719V4.34286L23.5685 6.03429H5.68578L7.38234 4.34286V32H0Z" fill="#E86828"/>
</svg>
